<?xml version="1.0" encoding="UTF-8"?>
<svg id="Layer_1" xmlns="http://www.w3.org/2000/svg" version="1.1" viewBox="0 0 654.9 390.48">
  <!-- Generator: Adobe Illustrator 29.5.1, SVG Export Plug-In . SVG Version: 2.1.0 Build 141)  -->
  <defs>
    <style>
      .st0 {
        fill: #f9dd70;
      }
    </style>
  </defs>
  <path class="st0" d="M60.3,98.28h24.3c53.46.24,96.71,43.74,96.71,97.2s-43.25,96.95-96.71,97.19h-24.3V98.28ZM84.59,122.58v145.79c40.09-.24,72.41-32.56,72.41-72.9s-32.32-72.65-72.41-72.9"/>
  <path class="st0" d="M284.09,98.28h24.3v145.79c0,26.73-21.87,48.6-48.6,48.6h-11.66c-26.73,0-48.6-21.87-48.6-48.6V98.28h24.3v145.79c0,13.36,10.93,24.3,24.3,24.3h11.42c13.61,0,24.54-10.93,24.54-24.3V98.28Z"/>
  <path class="st0" d="M423.81,268.37h12.15v24.3h-12.15c-53.7,0-97.2-43.49-97.2-97.2s42.52-97.19,95.49-97.19h1.7l12.15.24v24.06h-12.15c-40.34,0-72.9,32.56-72.9,72.9s32.56,72.9,72.9,72.9"/>
  <path class="st0" d="M533.15,268.37h12.15v24.3h-12.15c-53.7,0-97.2-43.49-97.2-97.2s42.52-97.19,95.49-97.19h1.7l12.15.24v24.06h-12.15c-40.34,0-72.9,32.56-72.9,72.9s32.56,72.9,72.9,72.9"/>
  <rect class="st0" x="569.6" y="98.28" width="24.3" height="194.39"/>
</svg>