<?xml version="1.0" encoding="UTF-8"?>
<svg id="Layer_1" xmlns="http://www.w3.org/2000/svg" version="1.1" viewBox="0 0 510.24 510.24">
  <!-- Generator: Adobe Illustrator 29.8.3, SVG Export Plug-In . SVG Version: 2.1.1 Build 3)  -->
  <defs>
    <style>
      .st0 {
        fill: #ba6728;
      }
    </style>
  </defs>
  <path class="st0" d="M17.23,168.45h21.67c47.66.21,86.23,39.01,86.23,86.67s-38.56,86.44-86.23,86.65h-21.67v-173.32ZM38.9,190.12v130c35.75-.21,64.55-29.04,64.55-65s-28.83-64.77-64.55-65"/>
  <path class="st0" d="M216.77,168.45h21.67v130c0,23.83-19.49,43.33-43.33,43.33h-10.39c-23.83,0-43.33-19.49-43.33-43.33v-130h21.67v130c0,11.92,9.74,21.67,21.67,21.67h10.18c12.13,0,21.88-9.74,21.88-21.67v-130h-.04Z"/>
  <path class="st0" d="M341.35,320.12h10.84v21.67h-10.84c-47.88,0-86.67-38.78-86.67-86.67s37.91-86.65,85.15-86.65h1.52l10.84.21v21.46h-10.84c-35.96,0-65,29.04-65,65s29.04,65,65,65"/>
  <path class="st0" d="M438.84,320.12h10.84v21.67h-10.84c-47.88,0-86.67-38.78-86.67-86.67s37.91-86.65,85.15-86.65h1.52l10.84.21v21.46h-10.84c-35.96,0-65,29.04-65,65s29.04,65,65,65"/>
  <rect class="st0" x="471.33" y="168.45" width="21.67" height="173.32"/>
</svg>